<svg width="339" height="278" viewBox="0 0 339 278" fill="none" xmlns="http://www.w3.org/2000/svg">
<g clip-path="url(#clip0)">
<circle cx="161.576" cy="138.576" r="138.576" fill="#F8DFFA"/>
<circle cx="89.5" cy="157.5" r="29.5" fill="#7B4CE0"/>
<circle cx="214" cy="93" r="20" fill="#7B4CE0"/>
<circle cx="227.5" cy="208.5" r="17.5" fill="#E9B1F0"/>
<path d="M91 114.924H232V203.924C232 208.894 227.971 212.924 223 212.924H100C95.0294 212.924 91 208.894 91 203.924V114.924Z" fill="#D354DE"/>
<path d="M232 114.924L164.354 67.9069C162.638 66.7146 160.362 66.7146 158.646 67.9069L91 114.924H232Z" fill="#D354DE"/>
<path d="M91 114.924L160.359 163.13C161.045 163.607 161.955 163.607 162.641 163.13L232 114.924L91 114.924Z" fill="#672DA0"/>
<path d="M112.845 66C112.845 61.5817 116.427 58 120.845 58H201.531C205.949 58 209.531 61.5817 209.531 66V130.543L160.789 164.44L112.845 130.114V66Z" fill="white"/>
<path d="M217.25 199.924L162.867 157.382C161.773 156.527 160.236 156.534 159.15 157.399L105.75 199.924" stroke="#8F3AAD" stroke-width="4" stroke-linecap="round"/>
<path d="M168.763 164.526L161.038 158.342L153.785 164.424L168.763 164.526Z" fill="#D354DE"/>
<rect x="122" y="118" width="78" height="5" rx="2.5" fill="#DFB3E2"/>
<rect x="122" y="71" width="22" height="22" rx="4" fill="#D354DE"/>
<rect x="122" y="98" width="66" height="5" rx="2.5" fill="#DFB3E2"/>
<rect x="122" y="108" width="46" height="5" rx="2.5" fill="#DFB3E2"/>
<rect x="122" y="128" width="24" height="5" rx="2.5" fill="#F045FF"/>
<path d="M60.4574 75.0407L65.9316 90.4167L8 22.5L60.4574 75.0407Z" fill="#312063"/>
<path d="M28.5784 92.7351C29.4417 95.3252 32.5889 96.3083 34.7731 94.6702L85.8223 56.3833C88.2011 54.5992 87.8708 50.9354 85.2111 49.6056L6.478 10.239C4.08745 9.04373 1.44514 11.3354 2.29032 13.871L28.5784 92.7351Z" fill="#D354DE"/>
<path d="M60.4571 75.0407L65.9314 90.4167L71.9556 66.7819L7.58314 14.5863L60.4571 75.0407Z" fill="#672DA0"/>
<path d="M329.671 158.672C309.094 182.343 266.196 170.829 266.196 170.829L275.721 159.871C259.081 145.406 256.247 121.412 269.401 106.28C282.555 91.1481 306.71 90.6149 323.35 105.08C339.991 119.546 342.825 143.54 329.671 158.672Z" fill="#D354DE"/>
<path d="M316.257 116.376C314.895 115.191 312.828 115.336 311.644 116.698L310.649 117.843C305.439 115.243 298.944 116.355 294.943 120.957L286.362 130.829L282.182 130.536L282.176 130.53C281.444 130.424 280.702 130.693 280.211 131.259C279.423 132.165 279.519 133.547 280.426 134.335L303.46 154.358C304.366 155.146 305.748 155.049 306.536 154.143C307.027 153.578 307.191 152.806 306.978 152.09L306.106 147.992L314.687 138.12C318.687 133.518 318.885 126.931 315.585 122.133L316.58 120.989C317.764 119.627 317.62 117.56 316.257 116.376ZM287.222 143.131C285.647 144.944 285.84 147.707 287.652 149.282C289.465 150.858 292.228 150.665 293.803 148.852L287.222 143.131Z" fill="#58258A"/>
</g>
<defs>
<clipPath id="clip0">
<rect width="339" height="278" fill="white"/>
</clipPath>
</defs>
</svg>
